<svg width="128" height="128" xmlns="http://www.w3.org/2000/svg" preserveAspectRatio="xMidYMid meet" version="1.0">

 <g>
  <title>Layer 1</title>
  <path id="svg_3" d="m62.65678,20.14459c-0.9,1.3 -3.1,5.7 -4.8,9.8c-2.2,4.9 -3.8,7.4 -4.9,7.4c-3.1,0 -14.4,7.5 -19.5,13c-2.8,3.1 -6.4,8.3 -8,11.5c-2.7,5.4 -3.1,7.2 -3.6,19c-0.4,10.9 -0.9,13.7 -2.8,17.3c-1.2,2.3 -1.9,4.2 -1.4,4.2c0.5,0 2.7,-1.6 4.9,-3.5l4.1,-3.5l1.6,2.5c0.9,1.3 1.6,2.8 1.6,3.2c0.1,0.4 1.5,1.5 3.3,2.4c1.8,0.9 5.1,2.6 7.5,3.9c2.7,1.6 4.6,2 5.2,1.4c0.6,-0.6 0.3,-1 -1,-1.1c-3.5,-0.3 -13.4,-7.9 -12.4,-9.5c0.3,-0.5 -0.3,-1.2 -1.4,-1.5c-2.2,-0.5 -4.2,-4.2 -4.2,-7.6c0,-1.8 1.3,-0.8 6.8,5c3.7,3.9 8.6,8 10.9,9.2c6.5,3.2 7.5,2.5 1.3,-1c-6.6,-3.6 -12.3,-9 -14.5,-13.6c-1.5,-3.2 -1.5,-3.4 1.1,-6.8c3.1,-4.2 3.7,-4.3 5.2,-1c0.6,1.4 1.7,2.5 2.3,2.5c0.8,0 0.6,-0.7 -0.4,-1.8c-0.9,-1 -1.9,-3.4 -2.3,-5.3c-0.4,-2.7 -0.3,-3 0.6,-1.7c0.9,1.5 1.4,1.5 4.5,0.2c3.9,-1.6 4.7,-0.4 1.3,1.8c-2,1.4 -2.1,1.8 -1,4.3c0.7,1.5 1.5,2.5 1.9,2.2c0.3,-0.4 0.1,-1.3 -0.6,-2.1c-1,-1.1 -0.3,-1.7 3.5,-3c2.6,-0.9 6,-1.6 7.5,-1.6c2.1,0 2.7,-0.4 2.3,-1.5c-0.4,-0.9 0,-1.5 1,-1.5c0.9,0 1.6,0.4 1.6,1c0,0.5 1.8,1 4,1c2.2,0 4,-0.5 4,-1c0,-0.6 0.7,-1 1.6,-1c1,0 1.4,0.6 1,1.5c-0.4,1.1 0.2,1.5 2.2,1.5c1.5,0 3.8,0.3 5.2,0.6c1.8,0.4 2.1,0.3 1.1,-0.4c-0.9,-0.7 -1,-1.2 -0.2,-1.6c1.5,-1 3.3,0.3 2.7,1.9c-0.2,0.7 0.4,1.5 1.6,1.9c1.8,0.4 1.9,0.7 0.8,2.1c-0.7,0.8 -1,1.8 -0.7,2.1c0.3,0.3 1,-0.4 1.7,-1.6c1.2,-2.3 0.5,-6.1 -1.2,-5.7c-0.6,0.1 -1.3,-0.4 -1.5,-1.1c-0.4,-1 0.4,-1 3.2,0.2c4.6,1.9 4.3,2 4.8,-0.2c0.3,-1.1 0.5,-0.8 0.6,0.9c0,1.4 -0.6,3.4 -1.4,4.5c-1.9,2.5 -1.9,4 0,2.4c0.8,-0.7 1.5,-1.9 1.5,-2.6c0,-2.4 1.6,-1.6 4.5,2.2c2.4,3.2 2.6,3.8 1.5,6.5c-0.7,1.6 -1.9,2.9 -2.7,2.9c-0.8,0 -1.2,0.4 -0.9,0.8c0.5,0.9 -5.2,6.8 -9.4,9.6c-1.3,0.9 -3.5,1.6 -4.7,1.6c-1.3,0 -2.3,0.5 -2.3,1.1c0,0.7 1,0.9 2.5,0.5c2,-0.5 2.3,-0.3 1.8,1.1c-0.6,1.6 -0.5,1.6 1,0.4c0.9,-0.7 1.5,-1.7 1.2,-2.1c-0.3,-0.5 1.1,-1.8 3,-3c1.9,-1.2 5.8,-4.8 8.6,-8.1c5.6,-6.4 7.7,-6.9 5.3,-1.1c-2,5 -8.4,11.3 -14.7,14.7c-3.8,2 -4.4,2.5 -2.2,2c1.7,-0.3 5,-1.8 7.4,-3.3c2.4,-1.5 5.1,-3.1 6.1,-3.6c0.9,-0.5 2.2,-2.2 2.8,-3.8l1.1,-2.9l4.7,3.6c2.5,2 4.8,3.4 5,3.2c0.3,-0.2 -0.8,-2.5 -2.2,-5.1c-2.4,-4.4 -2.6,-5.4 -2.1,-12.1c1.2,-13.7 -2.4,-24.2 -11.8,-34.3c-5.1,-5.6 -16.4,-13.2 -19.5,-13.2c-0.9,0 -3.2,-3.7 -6,-9.7c-4.5,-9.6 -4.6,-9.7 -6.2,-7.5zm4.2,12.5c2.4,5.4 4,6.9 11.9,10.8c13.2,6.6 22.2,19.2 22.9,32.1c0.3,3.8 0.2,6.8 -0.1,6.8c-0.3,0 -3.2,-2.7 -6.5,-6c-4.9,-4.9 -5.9,-6.4 -5.4,-8.5c0.5,-3 -2.1,-6.5 -4.9,-6.5c-1,0 -2.9,0.5 -4.2,1.1c-2,0.9 -3.3,0.6 -7.5,-1.5c-6.6,-3.3 -11.8,-3.3 -18.4,0c-4.1,2.1 -5.6,2.4 -7,1.5c-4.5,-2.8 -10.8,1 -9.5,5.8c0.3,1.4 -1.2,3.7 -5.5,8c-3.2,3.4 -6.1,6.1 -6.5,6.1c-0.3,0 -0.4,-3.3 -0.1,-7.3c0.4,-6 1.1,-8.5 3.9,-13.3c4.5,-7.9 11.3,-14.3 20.4,-18.9c6.9,-3.6 7.8,-4.4 10.1,-9.2c1.3,-2.9 2.9,-5.3 3.5,-5.3c0.6,0 1.9,1.9 2.9,4.3zm4.5,30.6c4.5,2 7.1,4.6 5.6,5.5c-0.5,0.4 -1.3,0.1 -1.8,-0.6c-1,-1.7 -4.9,-3.8 -6.8,-3.8c-0.8,0 -1.5,-0.5 -1.5,-1.1c0,-0.8 -0.5,-0.8 -1.5,0.1c-1.2,1 -1.8,1 -3,0c-1,-0.9 -1.5,-0.9 -1.5,-0.1c0,0.6 -0.9,1.1 -1.9,1.1c-1.1,0 -2.3,0.4 -2.6,1c-0.9,1.4 -2.8,1.3 -2.3,-0.2c0.5,-1.5 6.4,-3.6 10.3,-3.7c1.7,0 4.8,0.8 7,1.8zm-25.5,2.6c1.5,1.8 0.5,3.5 -2,3.5c-2.2,0 -3.4,-1.5 -2.6,-3.5c0.7,-1.9 3,-1.9 4.6,0zm40.5,1c0,2.2 -3.1,3.3 -4.8,1.6c-0.7,-0.7 -0.6,-1.5 0.3,-2.6c1.7,-2.1 4.5,-1.5 4.5,1zm-33.9,1c-0.3,0.9 -1.1,1.3 -1.6,1c-0.8,-0.5 -0.7,-1.1 0.1,-2.1c1.4,-1.8 2.4,-1.1 1.5,1.1zm17.4,0.5c1.3,0.8 1.2,1 -0.5,1.1c-9.8,0.7 -12.7,0.3 -10.3,-1.2c1.8,-1.2 9,-1.1 10.8,0.1zm-21,2.5c0,0.8 -0.7,1.5 -1.6,1.5c-1.4,0 -1.4,-0.3 -0.4,-1.5c0.7,-0.8 1.4,-1.5 1.6,-1.5c0.2,0 0.4,0.7 0.4,1.5zm32,0c1,1.2 1,1.5 -0.4,1.5c-0.9,0 -1.6,-0.7 -1.6,-1.5c0,-0.8 0.2,-1.5 0.4,-1.5c0.2,0 0.9,0.7 1.6,1.5zm-31.5,4.5c0.3,0.5 0.4,1 0.1,1c-0.2,0 -1.2,0.3 -2,0.6c-1.2,0.5 -1.5,0.2 -1,-1c0.7,-1.8 2,-2.1 2.9,-0.6z"/>
  <path id="svg_4" d="m149.09081,143.43626c0,0.7 -0.3,1.1 -0.7,0.9c-0.5,-0.1 -0.9,0.2 -1.1,0.8c-0.2,0.5 0.1,1.1 0.6,1.3c1.1,0.3 2.6,-2.8 1.7,-3.6c-0.3,-0.3 -0.5,0 -0.5,0.6z"/>
  <path id="svg_5" d="m139.99081,152.33626c-1,1.1 -1,1.4 -0.1,0.9c0.6,-0.4 1.2,-0.2 1.2,0.3c0,1.9 1.7,1.2 2.3,-0.9c0.6,-2.5 -1.5,-2.7 -3.4,-0.3z"/>
 </g>
</svg>